{"title":"Mr.robot.s02e08.720p.hdtv.x264.[GreatIndiaRipper]","uid":15655098,"size":172082233,"categoryP":"video","categoryS":"tv_shows","magnet":"?xt=urn:btih:db3cdca8c6111ab7374d1b0b3651b4e9cb7a2e8a&amp;dn=Mr.robot.s02e08.720p.hdtv.x264.%5BGreatIndiaRipper%5D&amp;tr=udp%3A%2F%2Ftracker.leechers-paradise.org%3A6969&amp;tr=udp%3A%2F%2Fzer0day.ch%3A1337&amp;tr=udp%3A%2F%2Fopen.demonii.com%3A1337&amp;tr=udp%3A%2F%2Ftracker.coppersurfer.tk%3A6969&amp;tr=udp%3A%2F%2Fexodus.desync.com%3A6969","seeders":1,"leechers":0,"uploader":"greatindiaripper","files":4,"time":1472132518,"description":"General\r\n\r\nFormat                      : Matroska\r\nFormat version              : Version 4 / Version 2\r\nFile size                   : 160 MiB\r\nDuration                    : 44 min\r\nOverall bit rate            : 498 kb/s\r\nMovie name                  : Mr.robot.s02e08.720p.hdtv.x264.[GreatIndiaRipper]\r\n\r\n\r\nVideo\r\nID                          : 1\r\nFormat                      : AVC\r\nFormat/Info                 : Advanced Video Codec\r\nFormat profile              :   \r\nFormat settings, CABAC      : Yes\r\nFormat settings, ReFrames   : 8 frames\r\nCodec ID                    : V_MPEG4/ISO/AVC\r\nDuration                    : 44 min\r\nBit rate                    : 400 kb/s\r\nWidth                       : 1 280 pixels\r\nHeight                      : 720 pixels\r\nDisplay aspect ratio        : 16:9\r\nFrame rate mode             : Constant\r\nFrame rate                  : 23.976 (24000/1001) FPS\r\nColor space                 : YUV\r\nChroma subsampling          : 4:2:0\r\nBit depth                   : 8 bits\r\nScan type                   : Progressive\r\nBits/(Pixel*Frame)          : 0.018\r\nStream size                 : 129 MiB (80%)\r\nDefault                     : Yes\r\n\r\nAudio\r\nID                          : 2\r\nFormat                      : AAC\r\nFormat/Info                 : Advanced Audio Codec\r\nFormat profile              : LC\r\nCodec ID                    : A_AAC\r\nDuration                    : 44 min\r\nBit rate                    : 96.0 kb/s\r\nChannel(s)                  : 2 channels\r\nChannel positions           : Front: L R\r\nSampling rate               : 48.0 kHz\r\nFrame rate                  : 46.875 FPS (1024 spf)\r\nCompression mode            : Lossy\r\nDelay relative to video     : 18 ms\r\nStream size                 : 31.0 MiB (19%)\r\nTitle                       : Stereo\r\nDefault                     : Yes\r\nForced                      : No","torrent":{"xt":"urn:btih:db3cdca8c6111ab7374d1b0b3651b4e9cb7a2e8a","amp;dn":"Mr.robot.s02e08.720p.hdtv.x264.%5BGreatIndiaRipper%5D","amp;tr":["udp%3A%2F%2Ftracker.leechers-paradise.org%3A6969","udp%3A%2F%2Fzer0day.ch%3A1337","udp%3A%2F%2Fopen.demonii.com%3A1337","udp%3A%2F%2Ftracker.coppersurfer.tk%3A6969","udp%3A%2F%2Fexodus.desync.com%3A6969"],"infoHash":"db3cdca8c6111ab7374d1b0b3651b4e9cb7a2e8a","infoHashBuffer":{"type":"Buffer","data":[219,60,220,168,198,17,26,183,55,77,27,11,54,81,180,233,203,122,46,138]},"announce":[],"urlList":[]}}